<?xml version="1.0" encoding="UTF-8" standalone="no"?>
<svg
   width="387.878"
   height="216.414"
   viewBox="0 0 387.878 216.414"
   version="1.1"
   id="svg8"
   sodipodi:docname="flecha.svg"
   inkscape:version="1.1.2 (0a00cf5339, 2022-02-04)"
   xmlns:inkscape="http://www.inkscape.org/namespaces/inkscape"
   xmlns:sodipodi="http://sodipodi.sourceforge.net/DTD/sodipodi-0.dtd"
   xmlns="http://www.w3.org/2000/svg"
   xmlns:svg="http://www.w3.org/2000/svg">
  <defs
     id="defs12" />
  <sodipodi:namedview
     id="namedview10"
     pagecolor="#ffffff"
     bordercolor="#666666"
     borderopacity="1.0"
     inkscape:pageshadow="2"
     inkscape:pageopacity="0.0"
     inkscape:pagecheckerboard="0"
     showgrid="false"
     inkscape:zoom="1.691461"
     inkscape:cx="121.197"
     inkscape:cy="107.00809"
     inkscape:window-width="1326"
     inkscape:window-height="740"
     inkscape:window-x="40"
     inkscape:window-y="0"
     inkscape:window-maximized="1"
     inkscape:current-layer="svg8" />
  <g
     id="g6"
     style="fill:#ffd700;fill-opacity:1">
    <path
       d="M336.738,41.644C289.8,25.773,238.017,36.6,196.683,62.528,176.352,11.1,116.874,4.4,74.468,33.11,40.41,54.5,16.937,90.286,7.75,129.167,1.956,150.233-.972,172.037.29,193.893c.742,2.7-1.689,8.956,2.721,8.743,5.481-1.8,1.146-14.32,2.2-19.332-.375-19.025,3.535-37.823,8.69-56.047C23.314,91.752,45.329,59.315,76.75,39.819c40.074-26.57,93.438-20.713,112.07,27.953-42.211,26.2-96.692,120.245-30.7,148.161,72.056,8.665,58.539-102.068,42.217-144.754C240.793,46.055,289.671,37.473,336.738,41.644ZM171.53,206.475c-20.695.819-35.478-22.39-33.082-41.522,4.386-35.37,24.837-68.019,53.939-88.4C203.241,110.076,219.891,197.055,171.53,206.475Z"
       id="path2"
       style="fill:#ffd700;fill-opacity:1" />
    <path
       d="M305.035,1.592c-1.647-2.555-6.806-2-7.142,1.4,1.444,5.906,17.421,7.8,22.983,10.349,20.336,5.285,40.074,12.8,56.175,26.684-16.419,15.36-31.8,31.887-43.443,51.233a.009.009,0,0,0,0,.015c11.9-11.24,23.767-22.538,36.346-33.031,6.071-6.279,16.5-11.081,17.919-20.343C370.062,12.108,332.389,11.909,305.035,1.592Z"
       id="path4"
       style="fill:#ffd700;fill-opacity:1" />
  </g>
</svg>
